<svg preserveAspectRatio="none" overflow="visible" style="display: block;" width="16" height="16" viewBox="0 0 16 16" fill="none" xmlns="http://www.w3.org/2000/svg">
<g id="bookmark-plus">
<path id="Vector" d="M8 4.66671V8.66679M10.0002 6.66675H5.99977M11.3337 2C11.6874 2 12.0266 2.14048 12.2766 2.39053C12.5267 2.64058 12.6672 2.97973 12.6672 3.33336V13.3335C12.6672 13.4503 12.6365 13.565 12.5782 13.6661C12.5199 13.7673 12.4361 13.8514 12.3351 13.91C12.2341 13.9686 12.1195 13.9996 12.0027 14C11.886 14.0004 11.7711 13.9701 11.6698 13.9122L8.66141 12.1935C8.45997 12.0785 8.23199 12.0179 8 12.0179C7.76801 12.0179 7.54003 12.0785 7.33859 12.1935L4.33025 13.9122C4.22886 13.9701 4.11405 14.0004 3.99729 14C3.88053 13.9996 3.76592 13.9686 3.66493 13.91C3.56394 13.8514 3.48011 13.7673 3.42182 13.6661C3.36354 13.565 3.33284 13.4503 3.3328 13.3335V3.33336C3.3328 2.97973 3.47329 2.64058 3.72337 2.39053C3.97345 2.14048 4.31262 2 4.66629 2H11.3337Z" stroke="#8F969F" stroke-linecap="round"/>
</g>
</svg>
